HIERARCHY
ROOT teapot3
{
	OFFSET 0.000000 0.000000 0.000000
	CHANNELS 6 Xposition Yposition Zposition Yrotation Xrotation Zrotation
	End Site
	{
		OFFSET 0.000000 0.000000 0.000000
	}
}
MOTION
Frames: 155
Frame Time: 0.008333334
1.794043 3.951297 2.957778 -36.738920 -0.669800 1.853329 
1.794964 3.951334 2.958113 -36.741850 -0.690002 1.835771 
1.795819 3.951386 2.958364 -36.753300 -0.704651 1.825545 
1.796717 3.951574 2.958521 -36.758480 -0.733826 1.737882 
1.797034 3.951319 2.958596 -36.733460 -0.721619 1.770354 
1.796638 3.951746 2.958597 -36.759460 -0.756073 1.798461 
1.795879 3.951610 2.958766 -36.750730 -0.704193 1.850873 
1.795071 3.951611 2.958734 -36.733580 -0.692474 1.861308 
1.793997 3.951635 2.958581 -36.740600 -0.678253 1.880242 
1.793279 3.951577 2.958293 -36.748930 -0.666443 1.900568 
1.792818 3.951494 2.957795 -36.746610 -0.660126 1.898972 
1.792966 3.951324 2.957320 -36.749540 -0.665588 1.886906 
1.793565 3.951353 2.956668 -36.740140 -0.688904 1.917961 
1.793943 3.951629 2.956225 -36.775760 -0.748047 1.894776 
1.794609 3.951681 2.955583 -36.758210 -0.753082 1.914584 
1.794856 3.951615 2.955219 -36.758000 -0.757813 1.858601 
1.794833 3.951461 2.954935 -36.765810 -0.720367 1.873070 
1.794612 3.951214 2.954430 -36.772030 -0.742584 1.845264 
1.793954 3.951598 2.954398 -36.782650 -0.753021 1.933212 
1.793527 3.951305 2.954123 -36.770940 -0.737518 1.915715 
1.792670 3.951394 2.953946 -36.774170 -0.756043 1.930888 
1.791805 3.951650 2.953729 -36.798280 -0.788910 1.910316 
1.791422 3.951400 2.953695 -36.785400 -0.716431 1.941310 
1.791120 3.951579 2.953323 -36.795290 -0.737030 1.961635 
1.790906 3.951487 2.953156 -36.788210 -0.733490 1.964308 
1.791249 3.951406 2.952724 -36.791750 -0.762451 1.944764 
1.791531 3.951347 2.952132 -36.766080 -0.764862 1.917908 
1.791672 3.951416 2.951990 -36.794860 -0.774811 1.897582 
1.792030 3.951174 2.951437 -36.769900 -0.730438 1.908024 
1.792223 3.950939 2.951492 -36.769680 -0.685486 1.936159 
1.791944 3.951236 2.951554 -36.788450 -0.795349 1.847093 
1.792316 3.951104 2.951274 -36.765960 -0.707611 1.917967 
1.792109 3.951197 2.951296 -36.767670 -0.737854 1.917051 
1.791994 3.951182 2.951475 -36.768710 -0.752167 1.898995 
1.791476 3.951468 2.951792 -36.782230 -0.740997 1.884924 
1.791474 3.951199 2.951973 -36.742680 -0.686340 1.934903 
1.791329 3.951058 2.952356 -36.756530 -0.701965 1.919654 
1.790967 3.951242 2.952536 -36.799770 -0.765839 1.887542 
1.791600 3.951094 2.952876 -36.774110 -0.688568 1.984494 
1.791763 3.951205 2.952882 -36.788540 -0.756012 1.898148 
1.792237 3.951198 2.952941 -36.775570 -0.719299 1.931334 
1.792280 3.951414 2.952871 -36.795070 -0.765625 1.891155 
1.792285 3.951360 2.953019 -36.785100 -0.740753 1.911818 
1.792078 3.951349 2.952670 -36.794130 -0.731781 1.912911 
1.791876 3.951315 2.952770 -36.791690 -0.742889 1.927155 
1.791531 3.951321 2.952569 -36.774290 -0.749359 1.930211 
1.791546 3.951263 2.952486 -36.792020 -0.740997 1.931093 
1.791395 3.951394 2.952316 -36.785860 -0.764374 1.925113 
1.791485 3.951293 2.951825 -36.776790 -0.750702 1.886500 
1.791584 3.951125 2.951741 -36.764890 -0.742035 1.905983 
1.791634 3.951240 2.951639 -36.760220 -0.725098 1.895391 
1.791811 3.951252 2.951579 -36.793670 -0.755035 1.894849 
1.791836 3.951333 2.951509 -36.772340 -0.762787 1.881231 
1.792155 3.951075 2.951649 -36.769040 -0.729492 1.908427 
1.792238 3.951025 2.951631 -36.780240 -0.720490 1.904937 
1.792122 3.951047 2.951910 -36.758970 -0.727142 1.935561 
1.791810 3.951296 2.951910 -36.778780 -0.763825 1.904568 
1.791522 3.951327 2.952199 -36.787170 -0.772156 1.898993 
1.791454 3.951377 2.952467 -36.774600 -0.740662 1.922126 
1.791496 3.951380 2.952596 -36.791630 -0.769379 1.914765 
1.791672 3.951299 2.952646 -36.788510 -0.753052 1.931151 
1.791710 3.951548 2.952845 -36.789550 -0.763306 1.942368 
1.791776 3.951377 2.952604 -36.796570 -0.770844 1.899875 
1.792132 3.951289 2.952606 -36.785190 -0.741943 1.906545 
1.792005 3.951252 2.952713 -36.801760 -0.742981 1.888406 
1.791814 3.951412 2.952695 -36.786380 -0.738678 1.924809 
1.791784 3.951581 2.952355 -36.802760 -0.749603 1.937587 
1.791739 3.951214 2.952381 -36.811710 -0.715088 1.917145 
1.791697 3.951481 2.952001 -36.761140 -0.751770 1.897073 
1.791656 3.951344 2.951980 -36.810030 -0.757172 1.913569 
1.791400 3.951335 2.951895 -36.801450 -0.764191 1.898194 
1.791473 3.951257 2.951715 -36.770750 -0.765228 1.900030 
1.791469 3.951248 2.951856 -36.810460 -0.759918 1.902786 
1.791678 3.951300 2.951670 -36.785550 -0.747192 1.901602 
1.791893 3.951196 2.951662 -36.764430 -0.725311 1.904477 
1.791944 3.951415 2.951672 -36.763210 -0.763825 1.902773 
1.792063 3.951424 2.951672 -36.750490 -0.777374 1.895449 
1.791773 3.951442 2.952138 -36.793400 -0.772980 1.901249 
1.791928 3.951410 2.951887 -36.739140 -0.711395 1.963117 
1.791762 3.951489 2.952135 -36.751560 -0.689636 1.966829 
1.791636 3.951355 2.952220 -36.752750 -0.698273 1.957255 
1.791528 3.951680 2.952791 -36.794680 -0.767853 1.972641 
1.791471 3.951660 2.952678 -36.799990 -0.777985 1.970306 
1.791707 3.951706 2.952503 -36.779300 -0.755402 1.976575 
1.791747 3.951404 2.952690 -36.790070 -0.741730 1.940513 
1.792025 3.951350 2.952337 -36.762910 -0.730896 1.936717 
1.791926 3.951672 2.952449 -36.779820 -0.751312 1.942088 
1.791727 3.951395 2.952335 -36.791530 -0.774536 1.884240 
1.791915 3.951423 2.951771 -36.761110 -0.755188 1.911802 
1.791736 3.951339 2.952034 -36.785130 -0.779144 1.913532 
1.791795 3.951312 2.952147 -36.782930 -0.743530 1.959619 
1.791596 3.951360 2.952077 -36.782470 -0.769562 1.928046 
1.791429 3.951283 2.951730 -36.797390 -0.752075 1.904574 
1.791518 3.951192 2.951730 -36.773010 -0.726105 1.944026 
1.791281 3.951385 2.951721 -36.760830 -0.734680 1.915114 
1.791438 3.951296 2.951633 -36.774960 -0.740234 1.923007 
1.791471 3.951210 2.951969 -36.786900 -0.724213 1.919531 
1.791482 3.951077 2.952229 -36.791110 -0.773621 1.916232 
1.791122 3.951028 2.952445 -36.775540 -0.753754 1.929584 
1.790856 3.950495 2.953249 -36.785280 -0.736206 1.896329 
1.790356 3.950593 2.954158 -36.761630 -0.705902 1.926563 
1.789386 3.950664 2.955448 -36.782990 -0.703278 1.914249 
1.788269 3.950830 2.956850 -36.779050 -0.683044 1.941653 
1.787140 3.951133 2.958892 -36.779420 -0.648041 1.949735 
1.786738 3.951593 2.960979 -36.780060 -0.615875 1.972132 
1.787146 3.951366 2.962495 -36.770720 -0.578003 1.929525 
1.788346 3.951233 2.963853 -36.764430 -0.595215 1.896915 
1.790228 3.951102 2.964792 -36.798130 -0.617188 1.865397 
1.792046 3.951115 2.965821 -36.769230 -0.636658 1.817740 
1.792978 3.951198 2.966525 -36.780240 -0.689117 1.798287 
1.792882 3.951236 2.967484 -36.781800 -0.697876 1.822465 
1.792213 3.951228 2.968853 -36.773190 -0.692291 1.856581 
1.790810 3.951170 2.970470 -36.775700 -0.615601 1.828752 
1.789534 3.951599 2.971754 -36.740360 -0.516785 1.896429 
1.788266 3.951695 2.973497 -36.752620 -0.529358 1.943118 
1.788081 3.951600 2.974794 -36.773530 -0.509155 1.860631 
1.788575 3.951513 2.975910 -36.766240 -0.549896 1.820459 
1.789633 3.951514 2.976701 -36.755770 -0.580078 1.833754 
1.790498 3.951649 2.977439 -36.794830 -0.603638 1.789860 
1.791109 3.951733 2.978253 -36.782810 -0.607330 1.788282 
1.791345 3.951931 2.978811 -36.775090 -0.620483 1.780913 
1.791362 3.951760 2.979112 -36.772060 -0.582703 1.821484 
1.790892 3.951897 2.979395 -36.763580 -0.603760 1.829199 
1.790726 3.951964 2.978899 -36.782530 -0.562622 1.846311 
1.790719 3.951948 2.978143 -36.777130 -0.565918 1.836485 
1.791086 3.952008 2.977012 -36.761930 -0.573669 1.871465 
1.791434 3.951718 2.975724 -36.794070 -0.595520 1.804136 
1.792414 3.951806 2.973626 -36.755860 -0.571289 1.860734 
1.792920 3.951879 2.971621 -36.733340 -0.595154 1.865168 
1.793462 3.951669 2.969949 -36.731900 -0.604614 1.864315 
1.793901 3.951507 2.968061 -36.759160 -0.660950 1.844594 
1.794234 3.951261 2.966056 -36.758790 -0.655457 1.822062 
1.794552 3.951082 2.964434 -36.770660 -0.664398 1.842135 
1.794675 3.950917 2.962587 -36.746920 -0.674133 1.849061 
1.794453 3.950922 2.961011 -36.731780 -0.677277 1.822929 
1.794171 3.950850 2.959917 -36.746730 -0.689514 1.846757 
1.793559 3.950723 2.958890 -36.746280 -0.684601 1.859153 
1.792639 3.950752 2.958066 -36.761020 -0.685516 1.907099 
1.791964 3.950829 2.957370 -36.744930 -0.675812 1.925627 
1.791569 3.950782 2.957097 -36.752780 -0.660553 1.929207 
1.791654 3.950777 2.956887 -36.744110 -0.659058 1.934711 
1.792377 3.950573 2.956856 -36.736760 -0.681122 1.902875 
1.793042 3.950638 2.957201 -36.738560 -0.678864 1.878430 
1.793871 3.950511 2.957501 -36.729770 -0.697907 1.842351 
1.794376 3.950528 2.957901 -36.745240 -0.707794 1.830003 
1.794723 3.950354 2.958374 -36.725740 -0.691284 1.859739 
1.794652 3.950659 2.958924 -36.751950 -0.710053 1.833660 
1.794439 3.950550 2.959526 -36.740050 -0.693787 1.847837 
1.794006 3.950706 2.959904 -36.739140 -0.683533 1.856345 
1.793653 3.950774 2.960456 -36.736150 -0.666809 1.866236 
1.793301 3.950854 2.960841 -36.733860 -0.642975 1.856083 
1.793371 3.950772 2.961146 -36.735530 -0.648956 1.874615 
1.793626 3.950854 2.961406 -36.719880 -0.632111 1.841940 
1.793990 3.950918 2.961609 -36.728700 -0.644806 1.868014 
1.794759 3.950762 2.961836 -36.724430 -0.657867 1.842900 
